<svg height="340" viewBox="0 0 603 340" width="603" xmlns="http://www.w3.org/2000/svg"><g fill="none" fill-rule="evenodd"><path d="m227.018704.55769296c46.47026 1.21160649 70.156395 57.87103794 130.77486 82.77628244 60.618466 24.9052446 157.885295 18.0731306 180.535788 42.9278916 74.516113 81.76661-21.715074 146.402451-146.292786 164.677515-111.699002 16.424-306.0489181 6.579697-368.5215169-67.934103-27.77859137-33.134072-30.78529399-76.415348-9.8720069-108.640715 29.4656856-45.4520714 120.7024058-116.23008403 213.3756618-113.80687104z" fill="#a4d8d9"/><ellipse cx="395.904098" cy="318.128655" fill="#706f6f" opacity=".3" rx="207.095902" ry="7.45614"/><path d="m235.27947 315.643275c-12.010237 0-21.758159-18.03454-21.758159-40.263158s9.747922-40.263158 21.758159-40.263158h24.702497v80.526316z" fill="#323e48"/><ellipse cx="260.47623" cy="275.380117" fill="#323e48" rx="22.241803" ry="40.263158"/><path d="m580.263934 172.48538 7.40989 10.686238c.483575.716089.778717 1.545373.857476 2.409321l1.61788 18.717307-9.707279-11.767974z" fill="#d41367"/><path d="m397.386885 222.192982h80.070492v61.637427h-80.070492z" fill="#323e48"/><path d="m555.55082 232.134503h37.563934v28.830409h-37.563934z" fill="#151935"/><path d="m547.645453 315.643275c-12.005939 0-21.750371-18.03454-21.750371-40.263158s9.744432-40.263158 21.750371-40.263158h24.710285v80.526316z" fill="#323e48"/><path d="m396.27923 322.602339c-13.047743 0-23.60546-19.584529-23.60546-43.74269s10.557717-43.74269 23.60546-43.74269h26.809295v87.48538z" fill="#323e48"/><path d="m217.458351 199.327485s-16.308411 3.233703-18.764908 24.853802h14.483097l4.29887-12.037502z" fill="#c6cacd"/><path d="m221.429508 289.795322 5.42394 5.863739c2.396057 2.593225 5.863724 4.080323 9.508636 4.077748h137.523661c2.442646.00823 4.585853-1.535309 5.223053-3.761644l1.473169-5.105088c-25.3452.031611-123.495076.079026-159.152459-1.074755z" fill="#323e48"/><path d="m591.388891 222.480994v-15.572717c0-7.61891-5.924471-10.515771-8.427769-17.598845-2.503297-7.083075-1.668865-18.419344-6.391753-24.263299l-22.212593-27.361097s-26.401444-16.895561-79.588171-16.895561h-71.177092c-33.235044-.003636-65.775883 9.543378-93.773523 27.511801l-43.907838 28.16485s-26.017605 12.273981-48.964499 23.4428c-.383839 0-3.45455 6.145363 0 12.675858 0 .770263-4.205539 11.905593-4.205539 11.905593h-14.168664s-11.097952 26.490365.383839 39.149477c.767678.770264-1.535356 21.885529 9.562596 24.196319 4.133415.479745 8.288992.742439 12.449733.787009 35.546824 1.222374 133.392378 1.17214 158.658994 1.13865h6.041292s13.017146-61.035006 41.721624-61.035006 15.019785 61.068496 15.019785 61.068496h101.416925c1.518798.000021 2.828961-1.06982 3.137467-2.561964 2.21959-11.051606 11.915696-54.085889 28.587657-54.085889 19.125193 0 15.687331 27.444821 15.687331 27.444821s13.017147-16.225767.150198-38.111296z" fill="#fff"/><rect fill="#e7e8ea" height="13.918129" rx="1.260158" width="62.277049" x="225.383607" y="269.912281"/><path d="m278.763934 175.467836 141.222557-.000001c2.704494.001269 5.276326-1.187679 7.048571-3.258525l35.594446-41.478316h-81.368301c-21.068297.000133-41.709398 6.023646-59.552891 17.378803z" fill="#c6cacd"/><path d="m437.397027 180.640761 34.882538-45.117512c1.369399-1.776865 3.464825-2.811176 5.68049-2.803913h18.657326c17.009033.362834 33.863061 3.38308 49.974983 8.955529l10.228213 14.121526c2.303633 3.171548 2.255971 7.519671-.116608 10.637877l-7.829414 10.315001-102.915148 14.546362c-2.73383.391406-5.470443-.695827-7.224676-2.870302-1.754234-2.174475-2.273558-5.123168-1.371021-7.784568z" fill="#c6cacd"/><path d="m338.428801 225.175439h33.205774c1.331519-.121358 14.498759-1.733676 25.381048-21.566931.392455-.699389.478417-1.543777.235684-2.315091-.242732-.771314-.790359-1.393925-1.501449-1.707037-3.123315-1.404278-9.748032-2.496494-22.783764 1.733676-16.438502 5.357059-30.772876 9.968637-35.967443 11.650303-1.221748.391586-2.007985 1.64266-1.873989 2.981923l.65754 6.69199c.13507 1.435266 1.279012 2.529315 2.646599 2.531167z" fill="#c6cacd" opacity=".76"/><path d="m294.499357 262.953216h-82.872077s-9.137349-4.5044-4.886641-27.506648c.309998-1.897048 1.957365-3.296329 3.899272-3.312059h102.719872c1.316108-.002346 2.546923.644204 3.282386 1.724245s.878926 2.451647.382594 3.657851c-3.614775 8.892878-11.831695 25.436611-22.525406 25.436611z" fill="#323e48"/><ellipse cx="572.85" cy="275.380117" fill="#444f59" rx="22.241803" ry="40.263158"/><path d="m589.160656 274.89135c0 17.017181-7.524342 30.810404-16.813242 30.810404-9.288899 0-16.796594-13.793223-16.796594-30.810404 0-15.770806 6.458948-28.782967 14.782335-30.610984.662597-.138424 1.33733-.210792 2.014259-.216039.683604.000639 1.364928.07869 2.030907.232657 8.340033 1.828018 14.782335 14.840179 14.782335 30.594366z" fill="#dadada"/><path d="m588.172131 275.355744c0 15.653863-6.644718 28.357706-14.844235 28.357706s-14.811503-12.703843-14.811503-28.357706c0-15.074091 6.137363-27.385735 13.878624-28.289498.310482-.025407.622397-.025407.932879 0 .315925-.02595.63332-.02595.949245 0 7.757627.903763 13.89499 13.215407 13.89499 28.289498z" fill="#323e48"/><path d="m576.492278 245.275007c-1.052022-.147741-2.114411-.220079-3.178033-.216393-1.057019-.000353-2.112865.06638-3.160377.199747-1.235901 2.613368-.600295 7.623711-.600295 13.316525 0 8.472638 2.206967 15.314003 3.760672 15.314003s3.795984-6.841365 3.795984-15.314003c0-5.676169.706229-10.686511-.617951-13.299879zm-1.536049 11.651959c0 6.441869-.971066 11.651959-1.641984 11.651959s-1.624328-5.226736-1.624328-11.651959c-.147765-3.218073-.100606-6.441474.141246-9.65448.991129-.110897 1.992691-.110897 2.98382 0 .239841 3.196414.286999 6.403088.141246 9.604543z" fill="#dadada" fill-rule="nonzero"/><path d="m558.383957 261.280109c-.382217 1.631634-.71458 3.263269-1.030324 5.04175-.315745 1.778482-.581635 3.459065-.814289 5.172281.997088 2.790095 3.772317 3.263269 6.746963 5.04175 4.387187 2.561666 8.574957 1.060562 9.023647-1.452155.448689-2.512716-2.442866-8.158171-6.813435-10.736153-2.991265-1.745849-5.400894-4.274882-7.112562-3.067473zm5.550457 5.988098c3.323627 1.941645 5.766492 5.090699 5.567075 6.183894-.199418 1.093195-3.174064 1.02793-6.514309-.930031-1.820347-.785359-3.5029-1.848143-4.98544-3.149055.116327-.815817.249272-1.631634.398835-2.414818.149563-.783185.299127-1.631635.481926-2.382187 1.213124.048949 2.974646 1.468471 5.051913 2.692197z" fill="#dadada" fill-rule="nonzero"/><path d="m561.48533 295.267063c.727854 1.181763 1.488057 2.313592 2.280609 3.412132s1.617453 2.113857 2.410005 3.045951c1.730675-.848872 2.830543-5.542633 4.625916-10.219749 2.620274-6.840908 3.10551-14.647199 1.957118-16.22843-1.148391-1.581232-4.852359 1.664454-7.553506 8.538651-1.795373 4.677116-3.81719 8.089248-3.720142 11.451445zm4.739138-7.822935c2.005641-5.209742 4.350949-8.455428 4.852359-7.773002.501411.682427-.420538 5.892169-2.42618 11.101911-.831718 2.634592-1.870313 5.195199-3.10551 7.65649-.388189-.449403-.760203-.932095-1.132217-1.448076s-.727854-1.031961-1.083694-1.664454c.779812-2.692534 1.747405-5.323656 2.895242-7.872869z" fill="#dadada" fill-rule="nonzero"/><path d="m579.51479 301.725146c.810118-.917805 1.620237-1.952423 2.430355-3.053789.810119-1.101367 1.620237-2.219421 2.268332-3.337475.113416-3.337475-1.91188-6.808448-3.710343-11.4976-2.640986-6.858511-6.480947-10.145923-7.582708-8.560623s-.664297 9.411679 1.960486 16.270189c1.798463 4.622403 2.900224 9.328242 4.633878 10.179298zm-2.478963-10.963604c-2.009093-5.223148-2.916426-10.462984-2.414152-11.147166.502273-.684182 2.835414 2.586543 4.86071 7.826378 1.155572 2.576188 2.124947 5.236708 2.900224 7.959878-.356452.56737-.712904 1.067992-1.085559 1.668737-.372654.600745-.745309 1.001242-1.134165 1.451801-1.246933-2.493972-2.292804-5.089245-3.127058-7.759628z" fill="#dadada" fill-rule="nonzero"/><path d="m588.172131 271.489459c-.232654-1.712455-.498544-3.441218-.814289-5.186291-.315744-1.745072-.648107-3.408599-1.030324-5.023199-1.661814-1.206873-4.121299 1.321036-7.095946 3.066109-4.387189 2.560527-7.278745 8.154544-6.830055 10.715071.448689 2.560527 4.636461 4.028345 9.023649 1.467818 2.974647-1.745073 5.749877-2.250654 6.746965-5.039508zm-6.447838 1.043781c-3.323628 1.940782-6.314893 1.9734-6.514311.880691s2.226831-4.191436 5.567077-6.148526c2.077267-1.223182 3.83879-2.642073 4.985442-2.691.166181.766527.315745 1.630909.465308 2.364818s.282508 1.630909.398835 2.430054c-1.4602 1.293769-3.11343 2.360759-4.902351 3.163963z" fill="#dadada" fill-rule="nonzero"/><ellipse cx="572.85" cy="275.877193" fill="#dadada" rx="3.459836" ry="5.964912"/><ellipse cx="572.355738" cy="280.350877" fill="#323e48" rx="1" ry="2.48538"/><ellipse cx="575.321311" cy="276.374269" fill="#323e48" rx="1" ry="2.48538"/><ellipse cx="574.332787" cy="270.409357" fill="#323e48" rx="1" ry="2.48538"/><ellipse cx="571.367213" cy="270.409357" fill="#323e48" rx="1" ry="2.48538"/><ellipse cx="569.390164" cy="276.374269" fill="#323e48" rx="1" ry="2.48538"/><path d="m517.986885 289.795322 25.784351-.000019c1.786185.005539 3.321058-1.257724 3.647295-3.001873 2.212017-11.621778 11.296483-53.144898 28.891305-53.664775h-42.332263z" fill="#fff"/><ellipse cx="423.582787" cy="278.859649" fill="#444f59" rx="23.230328" ry="43.74269"/><path d="m440.881967 278.834493c0 18.682463-8.179591 33.826326-18.287705 33.826326-10.108113 0-18.287705-15.093552-18.287705-33.826326 0-17.307272 7.015829-31.579063 16.05993-33.541225.72152-.154424 1.456946-.233106 2.194525-.234788.744044.000404 1.485707.084782 2.21115.251559 9.093977 1.945391 16.109805 16.217182 16.109805 33.524454z" fill="#dadada"/><path d="m438.904918 278.308093c0 16.80095-7.315383 30.376118-16.318931 30.376118s-16.30238-13.575168-16.30238-30.376118c0-16.145713 6.752661-29.334459 15.27624-30.24171.34126-.033298.68488-.033298 1.02614 0 .34123-.03393.68491-.03393 1.02614 0 8.54013.89045 15.292791 14.079196 15.292791 30.24171z" fill="#323e48"/><path d="m426.278297 247.299504c-1.069349-.173406-2.150262-.257834-3.232485-.252481-1.054547.001969-2.107671.080711-3.151673.235649-1.228344 2.878285-.598009 8.416039-.598009 14.7449 0 9.291306 2.198089 16.832077 3.749682 16.832077s3.765845-7.540771 3.765845-16.832077c.080812-6.345693.711147-11.849783-.53336-14.728068zm-1.519268 12.758715c0 7.086304-.969745 12.826043-1.616242 12.826043s-1.616243-5.739739-1.616243-12.826043c-.156486-3.540175-.107911-7.086954.145462-10.621041.489718-.033952.981062-.033952 1.470781 0 .495111-.033957.991831-.033957 1.486943 0 .239716 3.534789.282888 7.081059.129299 10.621041z" fill="#dadada" fill-rule="nonzero"/><path d="m407.259848 263.309257c-.405944 1.811414-.763174 3.689918-1.104166 5.635511-.340993 1.945594-.617034 3.857642-.8606 5.769691 1.055453 3.119658 4.01072 3.689918 7.177079 5.652283 4.660229 2.851301 9.109368 1.174065 9.580263-1.677235.470894-2.851301-2.598038-9.140934-7.24203-12.009007-3.166358-1.895276-5.73192-4.729804-7.550546-3.371243zm5.910535 6.708942c3.539826 2.180406 6.105388 5.685829 5.910535 6.910211-.194852 1.224381-3.377448 1.157292-6.917274-1.023114-2.208332-1.358561-4.221811-2.163634-5.261026-3.538967.113664-.905707.259803-1.794642.405943-2.683577s.324755-1.811414.50337-2.683577c1.266543.033545 3.117645 1.643691 5.358452 3.002252z" fill="#dadada" fill-rule="nonzero"/><path d="m410.242201 300.735137c.849429 1.266026 1.733529 2.482726 2.669635 3.666543.936106 1.183816 1.854876 2.268981 2.808317 3.288378 2.010894-.920746 3.27637-5.951965 5.373941-10.983185 3.068346-7.349527 3.640411-15.734893 2.305593-17.428408-1.334817-1.693515-5.755316 1.82505-8.823663 9.174577-2.09757 4.998336-4.45517 8.664878-4.333823 12.282095zm5.529958-8.401808c2.340264-5.590244 5.079241-9.092367 5.651305-8.352482.572065.739885-.485388 6.313687-2.825652 11.920373-.977408 2.826585-2.188873 5.575463-3.623076 8.220947-.464777-.496445-.898885-1.017976-1.300147-1.56198-.450718-.542582-.866765-1.101606-1.265477-1.644189.88362-2.9396 2.008058-5.809223 3.363047-8.582669z" fill="#dadada" fill-rule="nonzero"/><path d="m431.460731 307.690058c.936452-.985992 1.890247-2.087017 2.809358-3.286642.91911-1.199624 1.734171-2.366382 2.653282-3.631739.121392-3.615306-2.237081-7.279912-4.318087-12.308475-3.069483-7.345645-7.474279-10.878785-8.826933-9.186165-1.352653 1.692621-.780377 10.089992 2.289107 17.435637 2.098347 5.028562 3.364292 10.057125 5.393273 10.977384zm-2.896067-11.749745c-2.323789-5.587292-3.468342-11.191016-2.809357-11.930511.658985-.739494 3.294926 2.777213 5.636057 8.364504 1.347729 2.765629 2.478016 5.621824 3.381634 8.54527-.398859.591595-.832402 1.133891-1.248603 1.643321-.416201.509429-.884428 1.084592-1.335312 1.561155-1.425682-2.636744-2.637327-5.372572-3.624419-8.183739z" fill="#dadada" fill-rule="nonzero"/><path d="m440.881967 274.783468c-.243566-1.935832-.535845-3.871663-.8606-5.824327-.324754-1.952665-.698222-3.821163-1.087928-5.655994-1.818626-1.346665-4.384188 1.498165-7.566784 3.366663-4.643992 2.878497-7.712924 9.224656-7.24203 12.03582.470895 2.811163 4.871321 4.511328 9.580264 1.683331 3.166358-1.918998 6.121625-2.474497 7.177078-5.605493zm-6.852324 1.161498c-3.539826 2.188331-6.722422 2.205164-6.917274.993166-.194853-1.211999 2.370709-4.713328 5.910535-6.901659 2.208332-1.363499 4.075671-2.962663 5.342214-3.029997.194853.875333.357231 1.683332.50337 2.659664.14614.976332.308517 1.817998.422181 2.726997-1.039215 1.380332-3.052694 2.188331-5.261026 3.551829z" fill="#dadada" fill-rule="nonzero"/><ellipse cx="423.088525" cy="278.362573" fill="#dadada" rx="3.954098" ry="6.461988"/><g fill="#323e48"><ellipse cx="422.594262" cy="284.327485" rx="1.482787" ry="2.48538"/><ellipse cx="425.559836" cy="281.345029" rx="1.482787" ry="2.48538"/><ellipse cx="424.571311" cy="274.385965" rx="1.482787" ry="2.48538"/><ellipse cx="421.605738" cy="274.385965" rx="1.482787" ry="2.48538"/><ellipse cx="420.617213" cy="281.345029" rx="1.482787" ry="2.48538"/><path d="m321.893136 274.020215 29.220099-5.025277c1.952216-.337834 3.92822.455888 5.087655 2.043613l8.275919 11.373877c.336969.464547.382569 1.076237.118123 1.584525s-.794509.827778-1.373078.827608h-36.393693c-.64606-.006351-1.245388-.333829-1.594132-.871048l-4.595848-6.985135c-.385057-.530025-.46372-1.219571-.207731-1.820943.255988-.601373.809871-1.028223 1.462686-1.12722z"/><path d="m207.187834 283.850355 1.303915-7.004205c.217319-1.142173 0-2.653872-.351054-2.889025l-8.258126-5.038996s-.133734 0-.200602 0c.183886 4.66947.802409 11.606489 3.945178 15.906432h3.109334c.183886-.167966.367771-.503899.451355-.974206z"/></g><path d="m458.984194 267.190782 7.660166 8.667906c1.123576 1.281869 2.737034 2.012829 4.429574 2.006772h63.046496c1.158908.004387 2.182368-.764358 2.514533-1.888727 1.765169-6.172089 8.326267-26.071172 21.88143-39.865622 0 0-15.570119 6.745452-25.927996 29.12349-1.348273 2.967678-4.267947 4.879668-7.493641 4.907316h-50.090824c-1.333004-.001478-2.654201-.253057-3.896693-.742l-10.790842-4.18218c-.523699-.198083-1.113289-.008934-1.428827.45839-.315538.467323-.275667 1.092329.096624 1.514655z" fill="#e7e8ea"/><path d="m470.537705 199.327485 86.401016-11.928302c.265406-.019647.506695.152788.572207.408921s-.063674.521993-.306357.630474l-2.492337.907409c-2.959381 1.072868-6.030121 1.814385-9.155185 2.210778l-55.944658 7.17678c-1.554092.200185-3.118604.310361-4.685594.329967z" fill="#e7e8ea"/><path d="m549.053523 144.867103c-1.001524-.103818-2.007805-.154192-3.014618-.150909h-3.514279c-2.630027-.038279-5.114541 1.212357-6.66214 3.353538-2.20391 3.204726-3.367602 7.018093-3.331069 10.915769-.201965 2.357292.560039 4.695511 2.109875 6.474179 1.549837 1.778668 3.753354 2.843827 6.101212 2.949265l-.782802 3.772732c-4.024675.066621-8.010085.809008-11.791987 2.196568-1.378466-1.371592-3.210776-2.183485-5.146503-2.280407h-5.97927l.766146-3.655357c2.14854-.167677 10.626113-1.291113 8.527539-9.054555-2.415026-8.853343-4.813396-14.705268-17.421496-14.705268h-3.514278c-2.630028-.038279-5.114542 1.212358-6.66214 3.353539-2.203911 3.204726-3.367603 7.018092-3.33107 10.915769-.201965 2.357292.560039 4.69551 2.109876 6.474179 1.549837 1.778668 3.753354 2.843826 6.101211 2.949265l-.782801 3.772731c-9.52686.452728-13.324279 2.934347-13.324279 2.934347l-2.048608 5.483036.149898-5.885461c-1.39905-2.414548-5.396333-2.61576-5.396333-2.61576h-5.979271l.749491-3.655358c2.14854-.167677 10.626113-1.291112 8.527539-9.054554-2.398371-8.853343-4.796741-14.705268-17.421496-14.705268h-1.915365l-11.475535 14.654964c-.11766 2.296531.679397 4.545457 2.214499 6.248292s3.681443 2.718919 5.963277 2.823031l-.782801 3.772731c-9.510205.452728-13.32428 2.934347-13.32428 2.934347l-5.912649 15.879006c1.162643.392251 2.399939.507057 3.614211.335354l39.023483-5.449501 1.832089-.251515 37.241361-5.197985 3.647521-.503031 21.152294-2.951114 4.996604-6.438795.433039-2.095962c.316452 0 .766147 0 1.299118-.150909l2.048608-2.666063c1.810099-2.398296 1.810099-5.717269 0-8.115564zm-74.849139 27.264271h-9.726724l.766146-3.655358h9.710068zm40.722328 0h-9.643447l.749491-3.655358h9.710069zm37.041497 0h-9.710068l.74949-3.655358h9.710069z" fill="#b1b6ba" fill-rule="nonzero"/><path d="m406.232773 174.127472c-1.421701-2.324569-5.323111-2.522404-5.323111-2.522404h-5.934771l.760444-3.594014c2.13255-.164864 10.547032-1.269446 8.464076-8.902604-2.397053-8.704768-4.777574-14.458488-17.291842-14.458488h-3.488125c-2.610454-.037636-5.076478 1.192012-6.612559 3.297261-2.158248 3.160588-3.284173 6.909192-3.223623 10.732583-.200462 2.317733.555871 4.616712 2.094174 6.365531s3.725421 2.796102 6.055805 2.899771l-.776975 3.709418c-8.563264.412158-12.464674 2.439973-13.12593 2.819158h-.099188 22.466169 13.539214c.706665-.007607 1.410491-.090509 2.099488-.247294.314097 0 .462879 0 .446348 0zm-22.218199-2.522404h-.859633l.743913-3.594014h9.637805l-.743913 3.577527z" fill="#b1b6ba" fill-rule="nonzero" opacity=".2"/><path d="m335.729963 163.538012c-5.532179.064969-10.914121 1.798349-15.433628 4.97076-7.597566.504197-14.992479 2.653106-21.667079 6.296296l-1.083354.662768s28.050534-.397661 39.667422-.397661c0-.082846 0-.165692 0-.265107-.616678-3.31384-3.966742-5.38499-8.333492-6.147173 1.893465-.411456 3.828967-.600534 5.766777-.563353 5.766776 0 11.100211 5.136452 12.60024 6.62768l.416675.463938h7.216804l-.416675-.463938c-1.916703-2.054581-10.783539-11.18421-18.73369-11.18421z" fill="#b1b6ba" opacity=".2"/><path d="m467.572131 184.415205-5.220779 7.830544s-6.675751 3.596001-10.595614-2.117272c0-.13443 5.135192-5.528431 7.805493-5.461216 3.474813.084019 8.0109-.252056 8.0109-.252056z" fill="#444f59"/><path d="m459.170364 185.409357s-5.643534-9.384572 5.084265-18.581451c17.286501-2.354675 25.048479 9.589325 25.048479 9.589325s1.72865 8.992126-30.132744 8.992126z" fill="#fff"/><path d="m437.358368 180.87921c-.891475 2.602276-.378516 5.485463 1.354215 7.611631 1.73273 2.126168 4.4358 3.189248 7.13612 2.806537l5.907035-.830795c-2.303579-5.682637-5.495682-13.990586-7.091733-18.975355z" fill="#444f59"/><path d="m498.040809 132.719298h-.81294s11.397758 31.374638 11.397758 49.707603l12.326832-1.695927c-.613853-16.789671-9.456655-42.533834-11.115717-47.21459-5.956034-.678371-10.13687-.780126-11.795933-.797086z" fill="#444f59"/><path d="m552.585246 174.123548c-1.790932-10.8192-4.395461-21.47743-7.789879-31.877672-1.653902-.564358-3.407039-1.07741-5.060941-1.573361 2.861251 8.892912 7.60795 25.019868 8.831838 37.777777l.876568-.119712z" fill="#444f59"/><path d="m205.850336 242.076023c-.184438 2.183584-.251506 4.171888-.234739 5.964913h106.890111c1.056326-2.041563 1.995282-4.065372 2.833636-5.964913z" fill="#b1b6ba"/><ellipse cx="255.039344" cy="240.087719" fill="#606972" rx="11.862295" ry="11.929825"/><path d="m452.744262 199.327485c2.58374 17.11182 3.620574 34.409431 3.098699 51.695907 0 0 8.101626-32.077285-3.098699-51.695907z" fill="#e7e8ea"/><path d="m223.406557 212.251462h95.886886s-59.36334 8.947368-95.886886 0z" fill="#e7e8ea"/><ellipse cx="93.909836" cy="335.02924" fill="#706f6f" opacity=".1" rx="85.013115" ry="4.473684"/><path d="m28.1861459 177.713995s-6.9963175 5.1512-6.4028799 1.2878c.5934377-3.8634 2.2488164-11.487175 2.2488164-11.487175l8.5892291.910045z" fill="#fff"/><path d="m119.228595 149.758378 3.008755.00432.016703 11.697374-3.008755-.00432z" fill="#b2b2b2" transform="matrix(-.97084213 -.23971974 .23971974 -.97084213 200.659485 335.625296)"/><path d="m120.036938 141.581383-1.760107 7.303338c-.119393.481211-.04565.991438.204714 1.416416s.65643.729197 1.127259.844528l3.488502.894618c.983505.235841 1.970226-.37869 2.219955-1.382592l1.744251-7.287072c.11973-.483267.046408-.995569-.203685-1.42314-.250092-.427571-.656254-.735019-1.128288-.85407l-3.488502-.878352c-.976233-.24552-1.962059.365596-2.204099 1.366326zm1.934533.243986 3.266506.829556-.269566 1.122339-3.266506-.813289z" fill="#d41367" fill-rule="nonzero"/><ellipse cx="115.887493" cy="141.460414" rx="3.429167" ry="3.409299" stroke="#b2b2b2" stroke-width="1.575" transform="matrix(.16659666 -.98602513 .98602513 .16659666 -42.902499 232.161562)"/><path d="m119.485968 133.902296 3.271863.009818c.69847.002096 1.26417.567799 1.266263 1.266269l.018323 6.11438c.002102.701443-.564826 1.271778-1.266268 1.27388-.002539.000008-.005078.000008-.007618 0l-3.271863-.009818c-.69847-.002096-1.26417-.567798-1.266263-1.266268l-.018323-6.11438c-.002102-.701443.564826-1.271779 1.266269-1.273881.002539-.000007.005078-.000007.007617 0z" fill="#323e48" transform="matrix(-.78195583 -.62333384 .62333384 -.78195583 129.677186 321.830434)"/><path d="m112.850101 142.26695 2.055982.002952.001176.823522c.001631 1.141687-.917543 2.065886-2.05303 2.064256z" fill="#323e48" transform="matrix(-.97084213 -.23971974 .23971974 -.97084213 189.986223 310.533255)"/><path d="m91.9327869 326.578947h-7.2461152l-.6620815-6.959064h7.9081967z" fill="#fff"/><path d="m49.9557963 326.578947h-5.9134954l-.5472189-6.959064h6.9196721z" fill="#fff"/><ellipse cx="62.323734" cy="79.586724" fill="#323e48" rx="29.931192" ry="42.925594" transform="matrix(.94058481 -.33955886 .33955886 .94058481 -23.321401 25.891237)"/><path d="m37.5639344 98.4781603 20.1866195-2.5424878 17.377315 2.952016s0 19.8450555-18.6894453 19.9133105c-18.6894452.068254-18.8744892-20.3228387-18.8744892-20.3228387z" fill="#fff"/><path d="m80.3069452 101.412665c7.5326354 3.646612 8.3695949 45.3876 8.3695949 45.3876l28.0381429-8.633142 1.908268 5.088296-30.5322825 19.284642c-8.2356814.373141-13.6591789-26.866203-13.6591789-26.866203l-.1841311-20.030926s-1.4228312-17.9447235 6.0595867-14.230267z" fill="#fff"/><path d="m32.5595547 99.919055c-9.0931811.407217-27.22994416 25.671633-31.2144108 31.712017s26.7339525 42.842612 26.7339525 42.842612l2.7940866-5.531363-15.3757427-33.578427 16.9629161-17.764838s9.1923795-18.0872179.0991983-17.680001z" fill="#fff"/><path d="m83.7082216 174.40147 12.1786636 79.082683-3.8131815 66.962476-7.4583816.167406c-3.1412553-33.330572-10.8516093-48.246464-7.391189-66.962475-8.1135097-12.036505-17.9908258-41.851548-17.9908258-41.851548l-8.6006563 108.094176h-6.8200516s-13.0017733-45.668408-8.7014452-63.614351c0 0-12.430636-59.312013-5.140236-87.771065z" fill="#323e48"/><path d="m48.9549731 78.828627 17.2442788-.0046004-.0054073 20.393325-17.2442788.0046004z" fill="#fff" transform="matrix(.99906339 -.04327065 .04327065 .99906339 -3.798158 2.574662)"/><path d="m65.0335666 82.0175439-16.5958617.7108884.2573002 5.8924749c2.9267896 2.732971 6.0465542 4.4233057 8.5069872 4.3285205 2.460433-.0947851 5.4033038-2.0536776 8.0406307-5.0236113z" fill="#b2b2b2"/><ellipse cx="73.993814" cy="69.533869" fill="#ededed" rx="5.864615" ry="2.056317" transform="matrix(.2861901 -.95817286 .95817286 .2861901 -13.80795 120.532827)"/><path d="m74.1213985 64.6481769c.5003169 11.5264016-9.5727301 25.0325927-16.2102678 25.3178167-6.6375376.2852239-17.8279591-12.2814062-18.3449532-23.8078078s6.9877595-17.4993259 16.5271351-17.9187728c9.5393757-.419447 17.5110918 4.8823622 18.0280859 16.4087639z" fill="#fff"/><path d="m63.8719827 50.2083901c-17.5931028 2.682131-22.9627513 26.8383935-22.9627513 26.8383935s-5.1528614-20.3978624-2.6681483-27.1629826c2.4847132-6.7651202 6.8704819-11.1726985 23.3462977-10.5576875 15.2251212 3.7925673 14.0744822 21.2007933 12.9405192 28.3417535-.0403679.2078157-.2184025.3574846-.4252361.3574846-.2068337 0-.3848682-.1496689-.4252362-.3574846-.8324967-6.2306572-3.4897094-12.0562392-7.6208985-16.7077968-.557314-.6127867-1.3791468-.8955709-2.1845465-.7516801z" fill="#323e48"/><path d="m75.7757532 153.853596c-2.7435565-5.423199-.8247501-7.882165.6564338-10.021129 1.4811838-2.138963 6.867307-13.878 1.6831635-25.263349-.3574751-.724646-.6123961-1.495559-.7574236-2.290544-.8580241-5.540514-.0860409-11.211141 2.2217758-16.3201241 0-1.2631674-2.2386074-2.0042257-4.5613731-1.6842233-1.1613828 11.1495584-12.5227363 15.8990684-17.5553952 16.5559154-5.0326588.656847-16.3098542-4.884248-19.5583597-16.8422333-1.7657741-.2325057-3.5564817.1736436-5.0494905 1.1452718 4.8811741 6.8716315-.1009898 17.5832915-.1009898 17.5832915s-4.797016 11.267454 1.245541 26.139146c.7069286 1.684223.8079184 9.381124 0 11.01482-7.3722561 14.063265-8.2979961 40.707678-8.2979961 40.707678s30.2969429 5.406357 62.2770492-2.694757c-1.6831635-18.240139-9.3920523-32.623406-12.2029353-38.029763z" fill="#d41568"/><path d="m113.727003 143.654971 6.293356-.811126c.350012-.018921.694318-.094172 1.018768-.222661l5.915426-2.401567c1.065087-.447003 1.690515-1.527532 1.528152-2.640134l-.887314-5.741494c-.199185-1.244038-1.329363-2.146513-2.629078-2.099383l-2.629079.111331c-1.53847.073896-3.009847.632389-4.190093 1.590441l-1.823923 1.463207c-.85941.685899-1.540431 1.557524-1.988241 2.544707l-1.643174 3.705729z" fill="#fff"/><path d="m44.7365759 326.864636-4.7629799 5.648192c-.459059.543752-.562222 1.307674-.2640968 1.955637.2981252.647964.9428845 1.061179 1.6505807 1.057831h10.2110458c.6219624-.000481 1.2001471-.323209 1.5312734-.854717.3311264-.531509.3688411-1.197394.0998841-1.763542l-2.5119825-5.26945c-.522312-1.105493-1.5647227-1.86779-2.7680303-2.024213s-2.4030063.314412-3.1856945 1.250262z" fill="#323e48"/><path d="m85.8124354 325.584795-2.6606015 8.212542c-.1835502.387751-.1468546.845976.0959761 1.198471.2428306.352495.6539844.544373 1.0753579.501848h24.9996141c.614564.140859 1.225144-.251189 1.363767-.875664.138624-.624475-.247202-1.244901-.861767-1.38576l-16.1978756-6.801277z" fill="#323e48"/></g></svg>