<svg width="266" height="252" viewBox="0 0 266 252" fill="none" xmlns="http://www.w3.org/2000/svg">
<path opacity="0.4" d="M27.4605 101.767C44.7949 53.0139 70.9978 4.60837 136.107 22.8119C201.217 41.0155 257.96 87.4406 244.01 137.336C225.113 204.926 157.612 230.565 99.7741 219.39C41.9367 208.215 10.1261 150.521 27.4605 101.767Z" fill="url(#paint0_linear)"/>
<path opacity="0.8" d="M218.298 131.142C214.728 182.803 202.517 236.517 134.858 236.517C67.1997 236.517 0 207.063 0 155.214C0 84.9772 58.1498 42.077 116.906 37.2626C175.661 32.4483 221.867 79.4823 218.298 131.142Z" fill="url(#paint1_linear)"/>
<defs>
<linearGradient id="paint0_linear" x1="212.184" y1="251.171" x2="183.539" y2="6.09554" gradientUnits="userSpaceOnUse">
<stop stop-color="white" stop-opacity="0.35"/>
<stop offset="0.995036" stop-color="#FEB052"/>
</linearGradient>
<linearGradient id="paint1_linear" x1="0" y1="36.9225" x2="94.1039" y2="265.656" gradientUnits="userSpaceOnUse">
<stop stop-color="white" stop-opacity="0.35"/>
<stop offset="0.995036" stop-color="#FEB052"/>
</linearGradient>
</defs>
</svg>
